# This file uses centimeters as units for non-parametric coordinates.

mtllib ventanas.mtl
g default
v 27.690148 12.462736 -85.239123
v 27.690148 6.173356 -85.239123
v 14.003511 6.173356 -85.239123
v 14.003511 12.462736 -85.239123
v 14.003511 6.173356 -85.193614
v 14.003511 12.462736 -85.193614
v 27.690148 12.462736 -85.193614
v 27.690148 6.173356 -85.193614
vn 0.000000 0.000000 -1.000000
vn 0.000000 0.000000 -1.000000
vn 0.000000 0.000000 -1.000000
vn 0.000000 0.000000 -1.000000
vn -1.000000 0.000000 -0.000000
vn -1.000000 0.000000 -0.000000
vn -1.000000 0.000000 -0.000000
vn -1.000000 0.000000 -0.000000
vn 0.000000 1.000000 0.000000
vn 0.000000 1.000000 0.000000
vn 0.000000 1.000000 0.000000
vn 0.000000 1.000000 0.000000
vn 1.000000 0.000000 0.000000
vn 1.000000 0.000000 0.000000
vn 1.000000 0.000000 0.000000
vn 1.000000 0.000000 0.000000
vn 0.000000 -1.000000 0.000000
vn 0.000000 -1.000000 0.000000
vn 0.000000 -1.000000 0.000000
vn 0.000000 -1.000000 0.000000
vn 0.000000 -0.000000 1.000000
vn 0.000000 -0.000000 1.000000
vn 0.000000 -0.000000 1.000000
vn 0.000000 -0.000000 1.000000
s off
g Window2:Object01 ventana2
usemtl Window2:vidrio
f 1//1 2//2 3//3 4//4
f 5//5 6//6 4//7 3//8
f 6//9 7//10 1//11 4//12
f 7//13 8//14 2//15 1//16
f 8//17 5//18 3//19 2//20
f 7//21 6//22 5//23 8//24
g default
v 31.378924 13.610028 -54.360264
v 31.378924 6.540196 -54.360264
v 31.378924 6.540196 -38.341281
v 31.378924 13.610028 -38.341281
v 31.424434 6.540196 -38.341281
v 31.424434 13.610028 -38.341281
v 31.424434 13.610028 -54.360264
v 31.424434 6.540196 -54.360264
vn -1.000000 0.000000 -0.000000
vn -1.000000 0.000000 -0.000000
vn -1.000000 0.000000 -0.000000
vn -1.000000 0.000000 -0.000000
vn -0.000000 0.000000 1.000000
vn -0.000000 0.000000 1.000000
vn -0.000000 0.000000 1.000000
vn -0.000000 0.000000 1.000000
vn 0.000000 1.000000 0.000000
vn 0.000000 1.000000 0.000000
vn 0.000000 1.000000 0.000000
vn 0.000000 1.000000 0.000000
vn 0.000000 0.000000 -1.000000
vn 0.000000 0.000000 -1.000000
vn 0.000000 0.000000 -1.000000
vn 0.000000 0.000000 -1.000000
vn 0.000000 -1.000000 0.000000
vn 0.000000 -1.000000 0.000000
vn 0.000000 -1.000000 0.000000
vn 0.000000 -1.000000 0.000000
vn 1.000000 -0.000000 0.000000
vn 1.000000 -0.000000 0.000000
vn 1.000000 -0.000000 0.000000
vn 1.000000 -0.000000 0.000000
s off
g Window3:Object01 pasted__group1 ventana4
usemtl Window3:vidrio
f 9//25 10//26 11//27 12//28
f 13//29 14//30 12//31 11//32
f 14//33 15//34 9//35 12//36
f 15//37 16//38 10//39 9//40
f 16//41 13//42 11//43 10//44
f 15//45 14//46 13//47 16//48
g default
v -35.249659 13.499549 -53.554094
v -35.249659 6.429717 -53.554094
v -35.249659 6.429717 -36.151721
v -35.249659 13.499549 -36.151721
v -35.088413 6.429717 -36.151721
v -35.088413 13.499549 -36.151721
v -35.088413 13.499549 -53.554094
v -35.088413 6.429717 -53.554094
vn -1.000000 0.000000 -0.000000
vn -1.000000 0.000000 -0.000000
vn -1.000000 0.000000 -0.000000
vn -1.000000 0.000000 -0.000000
vn -0.000000 0.000000 1.000000
vn -0.000000 0.000000 1.000000
vn -0.000000 0.000000 1.000000
vn -0.000000 0.000000 1.000000
vn 0.000000 1.000000 0.000000
vn 0.000000 1.000000 0.000000
vn 0.000000 1.000000 0.000000
vn 0.000000 1.000000 0.000000
vn 0.000000 0.000000 -1.000000
vn 0.000000 0.000000 -1.000000
vn 0.000000 0.000000 -1.000000
vn 0.000000 0.000000 -1.000000
vn 0.000000 -1.000000 0.000000
vn 0.000000 -1.000000 0.000000
vn 0.000000 -1.000000 0.000000
vn 0.000000 -1.000000 0.000000
vn 1.000000 -0.000000 0.000000
vn 1.000000 -0.000000 0.000000
vn 1.000000 -0.000000 0.000000
vn 1.000000 -0.000000 0.000000
s off
g Window4:Object01 pasted__pasted__group1 pasted__group2 ventana5
usemtl Window4:vidrio
f 17//49 18//50 19//51 20//52
f 21//53 22//54 20//55 19//56
f 22//57 23//58 17//59 20//60
f 23//61 24//62 18//63 17//64
f 24//65 21//66 19//67 18//68
f 23//69 22//70 21//71 24//72
g default
v 31.357018 15.188504 -79.192307
v 31.357018 15.188504 -73.392322
v 31.357018 6.550320 -73.392322
v 31.357018 6.550320 -79.192307
v 31.306158 6.550320 -73.392322
v 31.306158 6.550320 -79.192307
v 31.306158 15.188504 -79.192307
v 31.306158 15.188504 -73.392322
vn 1.000000 0.000000 0.000000
vn 1.000000 0.000000 0.000000
vn 1.000000 0.000000 0.000000
vn 1.000000 0.000000 0.000000
vn 0.000000 -1.000000 -0.000000
vn 0.000000 -1.000000 -0.000000
vn 0.000000 -1.000000 -0.000000
vn 0.000000 -1.000000 -0.000000
vn 0.000000 0.000000 -1.000000
vn 0.000000 0.000000 -1.000000
vn 0.000000 0.000000 -1.000000
vn 0.000000 0.000000 -1.000000
vn 0.000000 1.000000 0.000000
vn 0.000000 1.000000 0.000000
vn 0.000000 1.000000 0.000000
vn 0.000000 1.000000 0.000000
vn 0.000000 0.000000 1.000000
vn 0.000000 0.000000 1.000000
vn 0.000000 0.000000 1.000000
vn 0.000000 0.000000 1.000000
vn -1.000000 0.000000 0.000000
vn -1.000000 0.000000 0.000000
vn -1.000000 0.000000 0.000000
vn -1.000000 0.000000 0.000000
s off
g Window5:Object01 pasted__group1 ventana6
usemtl Window5:vidrio
f 25//73 26//74 27//75 28//76
f 29//77 30//78 28//79 27//80
f 30//81 31//82 25//83 28//84
f 31//85 32//86 26//87 25//88
f 32//89 29//90 27//91 26//92
f 31//93 30//94 29//95 32//96
g default
v 10.762810 12.462736 -85.239123
v 10.762810 6.173356 -85.239123
v -2.923826 6.173356 -85.239123
v -2.923826 12.462736 -85.239123
v -2.923826 6.173356 -85.193614
v -2.923826 12.462736 -85.193614
v 10.762810 12.462736 -85.193614
v 10.762810 6.173356 -85.193614
vn 0.000000 0.000000 -1.000000
vn 0.000000 0.000000 -1.000000
vn 0.000000 0.000000 -1.000000
vn 0.000000 0.000000 -1.000000
vn -1.000000 0.000000 -0.000000
vn -1.000000 0.000000 -0.000000
vn -1.000000 0.000000 -0.000000
vn -1.000000 0.000000 -0.000000
vn 0.000000 1.000000 0.000000
vn 0.000000 1.000000 0.000000
vn 0.000000 1.000000 0.000000
vn 0.000000 1.000000 0.000000
vn 1.000000 0.000000 0.000000
vn 1.000000 0.000000 0.000000
vn 1.000000 0.000000 0.000000
vn 1.000000 0.000000 0.000000
vn 0.000000 -1.000000 0.000000
vn 0.000000 -1.000000 0.000000
vn 0.000000 -1.000000 0.000000
vn 0.000000 -1.000000 0.000000
vn 0.000000 -0.000000 1.000000
vn 0.000000 -0.000000 1.000000
vn 0.000000 -0.000000 1.000000
vn 0.000000 -0.000000 1.000000
s off
g tras ventana1
usemtl Window:vidrio
f 33//97 34//98 35//99 36//100
f 37//101 38//102 36//103 35//104
f 38//105 39//106 33//107 36//108
f 39//109 40//110 34//111 33//112
f 40//113 37//114 35//115 34//116
f 39//117 38//118 37//119 40//120
