# This file uses centimeters as units for non-parametric coordinates.

mtllib calles.mtl
g default
v -89.595170 -0.704021 85.013631
v 89.595170 -0.704021 85.013631
v -89.595170 -0.704021 -135.081466
v 89.595170 -0.704021 -135.081466
vt 0.261997 -0.082457
vt 0.733678 -0.082457
vt 0.733678 0.647095
vt 0.261997 0.647095
vn 0.000000 1.000000 0.000000
vn 0.000000 1.000000 0.000000
vn 0.000000 1.000000 0.000000
vn 0.000000 1.000000 0.000000
s off
g sueloCalles
usemtl lambert13SG
f 1/1/1 2/2/2 4/3/3 3/4/4
